<mxfile host="app.diagrams.net" modified="2023-06-02T13:49:11.946Z" agent="Mozilla/5.0 (Windows NT 10.0; Win64; x64) AppleWebKit/537.36 (KHTML, like Gecko) Chrome/113.0.0.0 Safari/537.36" etag="DgHLdXn1tA9bgTBgOVse" version="21.3.6" type="device">
  <diagram name="Page-1" id="f1b7ffb7-ca1e-a977-7cf5-a751b3c06c05">
    <mxGraphModel dx="2074" dy="1148" grid="1" gridSize="10" guides="1" tooltips="1" connect="1" arrows="1" fold="1" page="1" pageScale="1" pageWidth="826" pageHeight="1169" background="none" math="0" shadow="0">
      <root>
        <mxCell id="0" />
        <mxCell id="1" parent="0" />
        <mxCell id="13" value="" style="verticalLabelPosition=bottom;verticalAlign=top;strokeWidth=1;shape=mxgraph.mockup.graphics.iconGrid;strokeColor=#CCCCCC;gridSize=1,1;" parent="1" vertex="1">
          <mxGeometry x="20" y="120" width="780" height="480" as="geometry" />
        </mxCell>
        <mxCell id="2" value="Blog Name" style="text;spacingTop=-5;fontSize=18;fontStyle=0" parent="1" vertex="1">
          <mxGeometry x="70" y="30" width="230" height="20" as="geometry" />
        </mxCell>
        <mxCell id="3" value="" style="line;strokeWidth=1" parent="1" vertex="1">
          <mxGeometry x="20" y="60" width="780" height="10" as="geometry" />
        </mxCell>
        <mxCell id="4" value="" style="line;strokeWidth=1" parent="1" vertex="1">
          <mxGeometry x="20" y="90" width="780" height="10" as="geometry" />
        </mxCell>
        <mxCell id="5" value="Home" style="text;spacingTop=-5;" parent="1" vertex="1">
          <mxGeometry x="20" y="70.00000000000009" width="30" height="20" as="geometry" />
        </mxCell>
        <mxCell id="6" value="About" style="text;spacingTop=-5;" parent="1" vertex="1">
          <mxGeometry x="59.999999999999936" y="70.00000000000016" width="30" height="20" as="geometry" />
        </mxCell>
        <mxCell id="7" value="Associated blogs" style="text;spacingTop=-5;" parent="1" vertex="1">
          <mxGeometry x="459.9999999999999" y="70" width="30" height="20" as="geometry" />
        </mxCell>
        <mxCell id="8" value="PLACE YOUR ORDER HERE" style="text;spacingTop=-5;" parent="1" vertex="1">
          <mxGeometry x="20" y="120" width="30" height="20" as="geometry" />
        </mxCell>
        <mxCell id="9" value="                  Pick Your Toppings                              Pick Your Sauce                               Pick Your Crust                                 Pick Your Size" style="text;spacingTop=-5;whiteSpace=wrap;align=left" parent="1" vertex="1">
          <mxGeometry x="20" y="150" width="780" height="250" as="geometry" />
        </mxCell>
        <mxCell id="11" value="RSS" style="text;spacingTop=-5;" parent="1" vertex="1">
          <mxGeometry x="740" y="70.00000000000013" width="30" height="20" as="geometry" />
        </mxCell>
        <mxCell id="20" value="" style="verticalLabelPosition=bottom;verticalAlign=top;strokeWidth=1;shape=mxgraph.mockup.graphics.iconGrid;strokeColor=#CCCCCC;gridSize=1,1;" parent="1" vertex="1">
          <mxGeometry x="20" y="15" width="40" height="40" as="geometry" />
        </mxCell>
        <mxCell id="21" value="Blog &#xa;Logo" style="text;spacingTop=-5;align=center" parent="1" vertex="1">
          <mxGeometry x="20" y="20" width="40" height="40" as="geometry" />
        </mxCell>
        <mxCell id="22" value="Blog&#39;s Main Topic 1" style="text;spacingTop=-5;" parent="1" vertex="1">
          <mxGeometry x="99.99999999999997" y="70.00000000000026" width="30" height="20" as="geometry" />
        </mxCell>
        <mxCell id="23" value="Blog&#39;s Main Topic 2" style="text;spacingTop=-5;" parent="1" vertex="1">
          <mxGeometry x="219.99999999999997" y="70.00000000000003" width="30" height="20" as="geometry" />
        </mxCell>
        <mxCell id="24" value="Blog&#39;s Main Topic 3" style="text;spacingTop=-5;" parent="1" vertex="1">
          <mxGeometry x="340" y="70.00000000000013" width="30" height="20" as="geometry" />
        </mxCell>
        <mxCell id="27" value="" style="verticalLabelPosition=bottom;verticalAlign=top;strokeWidth=1;shape=mxgraph.mockup.graphics.iconGrid;strokeColor=#CCCCCC;gridSize=1,1;" parent="1" vertex="1">
          <mxGeometry x="20" y="620" width="780" height="570" as="geometry" />
        </mxCell>
        <mxCell id="28" value="Order A Specialty Pizza" style="text;spacingTop=-5;" parent="1" vertex="1">
          <mxGeometry x="20" y="620" width="30" height="20" as="geometry" />
        </mxCell>
        <mxCell id="29" value="Order any one of our amazing specialty pizza&#39;s here. " style="text;spacingTop=-5;whiteSpace=wrap;align=left" parent="1" vertex="1">
          <mxGeometry x="20" y="650" width="530" height="250" as="geometry" />
        </mxCell>
        <mxCell id="35" value="" style="verticalLabelPosition=bottom;verticalAlign=top;strokeWidth=1;shape=mxgraph.mockup.graphics.iconGrid;strokeColor=#CCCCCC;gridSize=1,1;" parent="1" vertex="1">
          <mxGeometry x="100" y="1370" width="360" height="200" as="geometry" />
        </mxCell>
        <mxCell id="36" value="Article&#xa;Picture" style="text;spacingTop=-5;align=center;verticalAlign=middle;fontSize=36;fontColor=#CCCCCC" parent="1" vertex="1">
          <mxGeometry x="100" y="1370" width="360" height="200" as="geometry" />
        </mxCell>
        <mxCell id="37" value="" style="verticalLabelPosition=bottom;verticalAlign=top;strokeWidth=1;shape=mxgraph.mockup.misc.rating;strokeColor=#999999;fillColor=#ffff00;emptyFillColor=#ffffff;grade=4;ratingScale=5;ratingStyle=star;" parent="1" vertex="1">
          <mxGeometry x="510.00000000000006" y="585.0000000000002" width="77.5" height="10" as="geometry" />
        </mxCell>
        <mxCell id="38" value="Rate this article" style="text;spacingTop=-5;" parent="1" vertex="1">
          <mxGeometry x="410.0000000000001" y="580.0000000000001" width="30" height="20" as="geometry" />
        </mxCell>
        <mxCell id="41" value="" style="verticalLabelPosition=bottom;verticalAlign=top;strokeWidth=1;shape=mxgraph.mockup.misc.rating;strokeColor=#999999;fillColor=#ffff00;emptyFillColor=#ffffff;grade=4;ratingScale=5;ratingStyle=star;" parent="1" vertex="1">
          <mxGeometry x="509.99999999999994" y="1085" width="77.5" height="10" as="geometry" />
        </mxCell>
        <mxCell id="43" value="" style="verticalLabelPosition=bottom;verticalAlign=top;strokeWidth=1;shape=mxgraph.mockup.misc.rating;strokeColor=#999999;fillColor=#ffff00;emptyFillColor=#ffffff;grade=4;ratingScale=5;ratingStyle=star;" parent="1" vertex="1">
          <mxGeometry x="510.0000000000001" y="1584.9999999999998" width="77.5" height="10" as="geometry" />
        </mxCell>
        <mxCell id="44" value="Rate this article" style="text;spacingTop=-5;" parent="1" vertex="1">
          <mxGeometry x="410.00000000000017" y="1579.9999999999998" width="30" height="20" as="geometry" />
        </mxCell>
        <mxCell id="47" value="Tags: Tag1 Tag2 Tag3 Tag4" style="text;spacingTop=-5;" parent="1" vertex="1">
          <mxGeometry x="20" y="580.0000000000002" width="210" height="20" as="geometry" />
        </mxCell>
        <mxCell id="49" value="Tags: Tag1 Tag2 Tag3 Tag4" style="text;spacingTop=-5;" parent="1" vertex="1">
          <mxGeometry x="20" y="1579.9999999999998" width="210" height="20" as="geometry" />
        </mxCell>
        <mxCell id="sGXUPFE_QBb6Gk835GLF-61" value="" style="shape=table;startSize=0;container=1;collapsible=0;childLayout=tableLayout;" vertex="1" parent="1">
          <mxGeometry x="60" y="195" width="120" height="160" as="geometry" />
        </mxCell>
        <mxCell id="sGXUPFE_QBb6Gk835GLF-62" value="" style="shape=tableRow;horizontal=0;startSize=0;swimlaneHead=0;swimlaneBody=0;strokeColor=inherit;top=0;left=0;bottom=0;right=0;collapsible=0;dropTarget=0;fillColor=none;points=[[0,0.5],[1,0.5]];portConstraint=eastwest;" vertex="1" parent="sGXUPFE_QBb6Gk835GLF-61">
          <mxGeometry width="120" height="40" as="geometry" />
        </mxCell>
        <mxCell id="sGXUPFE_QBb6Gk835GLF-63" value="" style="shape=partialRectangle;html=1;whiteSpace=wrap;connectable=0;strokeColor=inherit;overflow=hidden;fillColor=none;top=0;left=0;bottom=0;right=0;pointerEvents=1;" vertex="1" parent="sGXUPFE_QBb6Gk835GLF-62">
          <mxGeometry width="60" height="40" as="geometry">
            <mxRectangle width="60" height="40" as="alternateBounds" />
          </mxGeometry>
        </mxCell>
        <mxCell id="sGXUPFE_QBb6Gk835GLF-64" value="" style="shape=partialRectangle;html=1;whiteSpace=wrap;connectable=0;strokeColor=inherit;overflow=hidden;fillColor=none;top=0;left=0;bottom=0;right=0;pointerEvents=1;" vertex="1" parent="sGXUPFE_QBb6Gk835GLF-62">
          <mxGeometry x="60" width="60" height="40" as="geometry">
            <mxRectangle width="60" height="40" as="alternateBounds" />
          </mxGeometry>
        </mxCell>
        <mxCell id="sGXUPFE_QBb6Gk835GLF-65" value="" style="shape=tableRow;horizontal=0;startSize=0;swimlaneHead=0;swimlaneBody=0;strokeColor=inherit;top=0;left=0;bottom=0;right=0;collapsible=0;dropTarget=0;fillColor=none;points=[[0,0.5],[1,0.5]];portConstraint=eastwest;" vertex="1" parent="sGXUPFE_QBb6Gk835GLF-61">
          <mxGeometry y="40" width="120" height="40" as="geometry" />
        </mxCell>
        <mxCell id="sGXUPFE_QBb6Gk835GLF-66" value="" style="shape=partialRectangle;html=1;whiteSpace=wrap;connectable=0;strokeColor=inherit;overflow=hidden;fillColor=none;top=0;left=0;bottom=0;right=0;pointerEvents=1;" vertex="1" parent="sGXUPFE_QBb6Gk835GLF-65">
          <mxGeometry width="60" height="40" as="geometry">
            <mxRectangle width="60" height="40" as="alternateBounds" />
          </mxGeometry>
        </mxCell>
        <mxCell id="sGXUPFE_QBb6Gk835GLF-67" value="" style="shape=partialRectangle;html=1;whiteSpace=wrap;connectable=0;strokeColor=inherit;overflow=hidden;fillColor=none;top=0;left=0;bottom=0;right=0;pointerEvents=1;" vertex="1" parent="sGXUPFE_QBb6Gk835GLF-65">
          <mxGeometry x="60" width="60" height="40" as="geometry">
            <mxRectangle width="60" height="40" as="alternateBounds" />
          </mxGeometry>
        </mxCell>
        <mxCell id="sGXUPFE_QBb6Gk835GLF-68" value="" style="shape=tableRow;horizontal=0;startSize=0;swimlaneHead=0;swimlaneBody=0;strokeColor=inherit;top=0;left=0;bottom=0;right=0;collapsible=0;dropTarget=0;fillColor=none;points=[[0,0.5],[1,0.5]];portConstraint=eastwest;" vertex="1" parent="sGXUPFE_QBb6Gk835GLF-61">
          <mxGeometry y="80" width="120" height="40" as="geometry" />
        </mxCell>
        <mxCell id="sGXUPFE_QBb6Gk835GLF-69" value="" style="shape=partialRectangle;html=1;whiteSpace=wrap;connectable=0;strokeColor=inherit;overflow=hidden;fillColor=none;top=0;left=0;bottom=0;right=0;pointerEvents=1;" vertex="1" parent="sGXUPFE_QBb6Gk835GLF-68">
          <mxGeometry width="60" height="40" as="geometry">
            <mxRectangle width="60" height="40" as="alternateBounds" />
          </mxGeometry>
        </mxCell>
        <mxCell id="sGXUPFE_QBb6Gk835GLF-70" value="" style="shape=partialRectangle;html=1;whiteSpace=wrap;connectable=0;strokeColor=inherit;overflow=hidden;fillColor=none;top=0;left=0;bottom=0;right=0;pointerEvents=1;" vertex="1" parent="sGXUPFE_QBb6Gk835GLF-68">
          <mxGeometry x="60" width="60" height="40" as="geometry">
            <mxRectangle width="60" height="40" as="alternateBounds" />
          </mxGeometry>
        </mxCell>
        <mxCell id="sGXUPFE_QBb6Gk835GLF-71" value="" style="shape=tableRow;horizontal=0;startSize=0;swimlaneHead=0;swimlaneBody=0;strokeColor=inherit;top=0;left=0;bottom=0;right=0;collapsible=0;dropTarget=0;fillColor=none;points=[[0,0.5],[1,0.5]];portConstraint=eastwest;" vertex="1" parent="sGXUPFE_QBb6Gk835GLF-61">
          <mxGeometry y="120" width="120" height="40" as="geometry" />
        </mxCell>
        <mxCell id="sGXUPFE_QBb6Gk835GLF-72" value="" style="shape=partialRectangle;html=1;whiteSpace=wrap;connectable=0;strokeColor=inherit;overflow=hidden;fillColor=none;top=0;left=0;bottom=0;right=0;pointerEvents=1;" vertex="1" parent="sGXUPFE_QBb6Gk835GLF-71">
          <mxGeometry width="60" height="40" as="geometry">
            <mxRectangle width="60" height="40" as="alternateBounds" />
          </mxGeometry>
        </mxCell>
        <mxCell id="sGXUPFE_QBb6Gk835GLF-73" value="" style="shape=partialRectangle;html=1;whiteSpace=wrap;connectable=0;strokeColor=inherit;overflow=hidden;fillColor=none;top=0;left=0;bottom=0;right=0;pointerEvents=1;" vertex="1" parent="sGXUPFE_QBb6Gk835GLF-71">
          <mxGeometry x="60" width="60" height="40" as="geometry">
            <mxRectangle width="60" height="40" as="alternateBounds" />
          </mxGeometry>
        </mxCell>
        <mxCell id="sGXUPFE_QBb6Gk835GLF-74" value="" style="shape=table;startSize=0;container=1;collapsible=0;childLayout=tableLayout;" vertex="1" parent="1">
          <mxGeometry x="270" y="195" width="120" height="155" as="geometry" />
        </mxCell>
        <mxCell id="sGXUPFE_QBb6Gk835GLF-75" value="" style="shape=tableRow;horizontal=0;startSize=0;swimlaneHead=0;swimlaneBody=0;strokeColor=inherit;top=0;left=0;bottom=0;right=0;collapsible=0;dropTarget=0;fillColor=none;points=[[0,0.5],[1,0.5]];portConstraint=eastwest;" vertex="1" parent="sGXUPFE_QBb6Gk835GLF-74">
          <mxGeometry width="120" height="40" as="geometry" />
        </mxCell>
        <mxCell id="sGXUPFE_QBb6Gk835GLF-76" value="" style="shape=partialRectangle;html=1;whiteSpace=wrap;connectable=0;strokeColor=inherit;overflow=hidden;fillColor=none;top=0;left=0;bottom=0;right=0;pointerEvents=1;" vertex="1" parent="sGXUPFE_QBb6Gk835GLF-75">
          <mxGeometry width="60" height="40" as="geometry">
            <mxRectangle width="60" height="40" as="alternateBounds" />
          </mxGeometry>
        </mxCell>
        <mxCell id="sGXUPFE_QBb6Gk835GLF-77" value="" style="shape=partialRectangle;html=1;whiteSpace=wrap;connectable=0;strokeColor=inherit;overflow=hidden;fillColor=none;top=0;left=0;bottom=0;right=0;pointerEvents=1;" vertex="1" parent="sGXUPFE_QBb6Gk835GLF-75">
          <mxGeometry x="60" width="60" height="40" as="geometry">
            <mxRectangle width="60" height="40" as="alternateBounds" />
          </mxGeometry>
        </mxCell>
        <mxCell id="sGXUPFE_QBb6Gk835GLF-78" value="" style="shape=tableRow;horizontal=0;startSize=0;swimlaneHead=0;swimlaneBody=0;strokeColor=inherit;top=0;left=0;bottom=0;right=0;collapsible=0;dropTarget=0;fillColor=none;points=[[0,0.5],[1,0.5]];portConstraint=eastwest;" vertex="1" parent="sGXUPFE_QBb6Gk835GLF-74">
          <mxGeometry y="40" width="120" height="35" as="geometry" />
        </mxCell>
        <mxCell id="sGXUPFE_QBb6Gk835GLF-79" value="" style="shape=partialRectangle;html=1;whiteSpace=wrap;connectable=0;strokeColor=inherit;overflow=hidden;fillColor=none;top=0;left=0;bottom=0;right=0;pointerEvents=1;" vertex="1" parent="sGXUPFE_QBb6Gk835GLF-78">
          <mxGeometry width="60" height="35" as="geometry">
            <mxRectangle width="60" height="35" as="alternateBounds" />
          </mxGeometry>
        </mxCell>
        <mxCell id="sGXUPFE_QBb6Gk835GLF-80" value="" style="shape=partialRectangle;html=1;whiteSpace=wrap;connectable=0;strokeColor=inherit;overflow=hidden;fillColor=none;top=0;left=0;bottom=0;right=0;pointerEvents=1;" vertex="1" parent="sGXUPFE_QBb6Gk835GLF-78">
          <mxGeometry x="60" width="60" height="35" as="geometry">
            <mxRectangle width="60" height="35" as="alternateBounds" />
          </mxGeometry>
        </mxCell>
        <mxCell id="sGXUPFE_QBb6Gk835GLF-81" value="" style="shape=tableRow;horizontal=0;startSize=0;swimlaneHead=0;swimlaneBody=0;strokeColor=inherit;top=0;left=0;bottom=0;right=0;collapsible=0;dropTarget=0;fillColor=none;points=[[0,0.5],[1,0.5]];portConstraint=eastwest;" vertex="1" parent="sGXUPFE_QBb6Gk835GLF-74">
          <mxGeometry y="75" width="120" height="40" as="geometry" />
        </mxCell>
        <mxCell id="sGXUPFE_QBb6Gk835GLF-82" value="" style="shape=partialRectangle;html=1;whiteSpace=wrap;connectable=0;strokeColor=inherit;overflow=hidden;fillColor=none;top=0;left=0;bottom=0;right=0;pointerEvents=1;" vertex="1" parent="sGXUPFE_QBb6Gk835GLF-81">
          <mxGeometry width="60" height="40" as="geometry">
            <mxRectangle width="60" height="40" as="alternateBounds" />
          </mxGeometry>
        </mxCell>
        <mxCell id="sGXUPFE_QBb6Gk835GLF-83" value="" style="shape=partialRectangle;html=1;whiteSpace=wrap;connectable=0;strokeColor=inherit;overflow=hidden;fillColor=none;top=0;left=0;bottom=0;right=0;pointerEvents=1;" vertex="1" parent="sGXUPFE_QBb6Gk835GLF-81">
          <mxGeometry x="60" width="60" height="40" as="geometry">
            <mxRectangle width="60" height="40" as="alternateBounds" />
          </mxGeometry>
        </mxCell>
        <mxCell id="sGXUPFE_QBb6Gk835GLF-84" value="" style="shape=tableRow;horizontal=0;startSize=0;swimlaneHead=0;swimlaneBody=0;strokeColor=inherit;top=0;left=0;bottom=0;right=0;collapsible=0;dropTarget=0;fillColor=none;points=[[0,0.5],[1,0.5]];portConstraint=eastwest;" vertex="1" parent="sGXUPFE_QBb6Gk835GLF-74">
          <mxGeometry y="115" width="120" height="40" as="geometry" />
        </mxCell>
        <mxCell id="sGXUPFE_QBb6Gk835GLF-85" value="" style="shape=partialRectangle;html=1;whiteSpace=wrap;connectable=0;strokeColor=inherit;overflow=hidden;fillColor=none;top=0;left=0;bottom=0;right=0;pointerEvents=1;" vertex="1" parent="sGXUPFE_QBb6Gk835GLF-84">
          <mxGeometry width="60" height="40" as="geometry">
            <mxRectangle width="60" height="40" as="alternateBounds" />
          </mxGeometry>
        </mxCell>
        <mxCell id="sGXUPFE_QBb6Gk835GLF-86" value="" style="shape=partialRectangle;html=1;whiteSpace=wrap;connectable=0;strokeColor=inherit;overflow=hidden;fillColor=none;top=0;left=0;bottom=0;right=0;pointerEvents=1;" vertex="1" parent="sGXUPFE_QBb6Gk835GLF-84">
          <mxGeometry x="60" width="60" height="40" as="geometry">
            <mxRectangle width="60" height="40" as="alternateBounds" />
          </mxGeometry>
        </mxCell>
        <mxCell id="sGXUPFE_QBb6Gk835GLF-87" value="" style="shape=table;startSize=0;container=1;collapsible=0;childLayout=tableLayout;" vertex="1" parent="1">
          <mxGeometry x="460" y="197.5" width="120" height="155" as="geometry" />
        </mxCell>
        <mxCell id="sGXUPFE_QBb6Gk835GLF-88" value="" style="shape=tableRow;horizontal=0;startSize=0;swimlaneHead=0;swimlaneBody=0;strokeColor=inherit;top=0;left=0;bottom=0;right=0;collapsible=0;dropTarget=0;fillColor=none;points=[[0,0.5],[1,0.5]];portConstraint=eastwest;" vertex="1" parent="sGXUPFE_QBb6Gk835GLF-87">
          <mxGeometry width="120" height="40" as="geometry" />
        </mxCell>
        <mxCell id="sGXUPFE_QBb6Gk835GLF-89" value="" style="shape=partialRectangle;html=1;whiteSpace=wrap;connectable=0;strokeColor=inherit;overflow=hidden;fillColor=none;top=0;left=0;bottom=0;right=0;pointerEvents=1;" vertex="1" parent="sGXUPFE_QBb6Gk835GLF-88">
          <mxGeometry width="60" height="40" as="geometry">
            <mxRectangle width="60" height="40" as="alternateBounds" />
          </mxGeometry>
        </mxCell>
        <mxCell id="sGXUPFE_QBb6Gk835GLF-90" value="" style="shape=partialRectangle;html=1;whiteSpace=wrap;connectable=0;strokeColor=inherit;overflow=hidden;fillColor=none;top=0;left=0;bottom=0;right=0;pointerEvents=1;" vertex="1" parent="sGXUPFE_QBb6Gk835GLF-88">
          <mxGeometry x="60" width="60" height="40" as="geometry">
            <mxRectangle width="60" height="40" as="alternateBounds" />
          </mxGeometry>
        </mxCell>
        <mxCell id="sGXUPFE_QBb6Gk835GLF-91" value="" style="shape=tableRow;horizontal=0;startSize=0;swimlaneHead=0;swimlaneBody=0;strokeColor=inherit;top=0;left=0;bottom=0;right=0;collapsible=0;dropTarget=0;fillColor=none;points=[[0,0.5],[1,0.5]];portConstraint=eastwest;" vertex="1" parent="sGXUPFE_QBb6Gk835GLF-87">
          <mxGeometry y="40" width="120" height="35" as="geometry" />
        </mxCell>
        <mxCell id="sGXUPFE_QBb6Gk835GLF-92" value="" style="shape=partialRectangle;html=1;whiteSpace=wrap;connectable=0;strokeColor=inherit;overflow=hidden;fillColor=none;top=0;left=0;bottom=0;right=0;pointerEvents=1;" vertex="1" parent="sGXUPFE_QBb6Gk835GLF-91">
          <mxGeometry width="60" height="35" as="geometry">
            <mxRectangle width="60" height="35" as="alternateBounds" />
          </mxGeometry>
        </mxCell>
        <mxCell id="sGXUPFE_QBb6Gk835GLF-93" value="" style="shape=partialRectangle;html=1;whiteSpace=wrap;connectable=0;strokeColor=inherit;overflow=hidden;fillColor=none;top=0;left=0;bottom=0;right=0;pointerEvents=1;" vertex="1" parent="sGXUPFE_QBb6Gk835GLF-91">
          <mxGeometry x="60" width="60" height="35" as="geometry">
            <mxRectangle width="60" height="35" as="alternateBounds" />
          </mxGeometry>
        </mxCell>
        <mxCell id="sGXUPFE_QBb6Gk835GLF-94" value="" style="shape=tableRow;horizontal=0;startSize=0;swimlaneHead=0;swimlaneBody=0;strokeColor=inherit;top=0;left=0;bottom=0;right=0;collapsible=0;dropTarget=0;fillColor=none;points=[[0,0.5],[1,0.5]];portConstraint=eastwest;" vertex="1" parent="sGXUPFE_QBb6Gk835GLF-87">
          <mxGeometry y="75" width="120" height="40" as="geometry" />
        </mxCell>
        <mxCell id="sGXUPFE_QBb6Gk835GLF-95" value="" style="shape=partialRectangle;html=1;whiteSpace=wrap;connectable=0;strokeColor=inherit;overflow=hidden;fillColor=none;top=0;left=0;bottom=0;right=0;pointerEvents=1;" vertex="1" parent="sGXUPFE_QBb6Gk835GLF-94">
          <mxGeometry width="60" height="40" as="geometry">
            <mxRectangle width="60" height="40" as="alternateBounds" />
          </mxGeometry>
        </mxCell>
        <mxCell id="sGXUPFE_QBb6Gk835GLF-96" value="" style="shape=partialRectangle;html=1;whiteSpace=wrap;connectable=0;strokeColor=inherit;overflow=hidden;fillColor=none;top=0;left=0;bottom=0;right=0;pointerEvents=1;" vertex="1" parent="sGXUPFE_QBb6Gk835GLF-94">
          <mxGeometry x="60" width="60" height="40" as="geometry">
            <mxRectangle width="60" height="40" as="alternateBounds" />
          </mxGeometry>
        </mxCell>
        <mxCell id="sGXUPFE_QBb6Gk835GLF-97" value="" style="shape=tableRow;horizontal=0;startSize=0;swimlaneHead=0;swimlaneBody=0;strokeColor=inherit;top=0;left=0;bottom=0;right=0;collapsible=0;dropTarget=0;fillColor=none;points=[[0,0.5],[1,0.5]];portConstraint=eastwest;" vertex="1" parent="sGXUPFE_QBb6Gk835GLF-87">
          <mxGeometry y="115" width="120" height="40" as="geometry" />
        </mxCell>
        <mxCell id="sGXUPFE_QBb6Gk835GLF-98" value="" style="shape=partialRectangle;html=1;whiteSpace=wrap;connectable=0;strokeColor=inherit;overflow=hidden;fillColor=none;top=0;left=0;bottom=0;right=0;pointerEvents=1;" vertex="1" parent="sGXUPFE_QBb6Gk835GLF-97">
          <mxGeometry width="60" height="40" as="geometry">
            <mxRectangle width="60" height="40" as="alternateBounds" />
          </mxGeometry>
        </mxCell>
        <mxCell id="sGXUPFE_QBb6Gk835GLF-99" value="" style="shape=partialRectangle;html=1;whiteSpace=wrap;connectable=0;strokeColor=inherit;overflow=hidden;fillColor=none;top=0;left=0;bottom=0;right=0;pointerEvents=1;" vertex="1" parent="sGXUPFE_QBb6Gk835GLF-97">
          <mxGeometry x="60" width="60" height="40" as="geometry">
            <mxRectangle width="60" height="40" as="alternateBounds" />
          </mxGeometry>
        </mxCell>
        <mxCell id="sGXUPFE_QBb6Gk835GLF-100" value="" style="shape=table;startSize=0;container=1;collapsible=0;childLayout=tableLayout;" vertex="1" parent="1">
          <mxGeometry x="650" y="195" width="120" height="155" as="geometry" />
        </mxCell>
        <mxCell id="sGXUPFE_QBb6Gk835GLF-101" value="" style="shape=tableRow;horizontal=0;startSize=0;swimlaneHead=0;swimlaneBody=0;strokeColor=inherit;top=0;left=0;bottom=0;right=0;collapsible=0;dropTarget=0;fillColor=none;points=[[0,0.5],[1,0.5]];portConstraint=eastwest;" vertex="1" parent="sGXUPFE_QBb6Gk835GLF-100">
          <mxGeometry width="120" height="40" as="geometry" />
        </mxCell>
        <mxCell id="sGXUPFE_QBb6Gk835GLF-102" value="" style="shape=partialRectangle;html=1;whiteSpace=wrap;connectable=0;strokeColor=inherit;overflow=hidden;fillColor=none;top=0;left=0;bottom=0;right=0;pointerEvents=1;" vertex="1" parent="sGXUPFE_QBb6Gk835GLF-101">
          <mxGeometry width="60" height="40" as="geometry">
            <mxRectangle width="60" height="40" as="alternateBounds" />
          </mxGeometry>
        </mxCell>
        <mxCell id="sGXUPFE_QBb6Gk835GLF-103" value="" style="shape=partialRectangle;html=1;whiteSpace=wrap;connectable=0;strokeColor=inherit;overflow=hidden;fillColor=none;top=0;left=0;bottom=0;right=0;pointerEvents=1;" vertex="1" parent="sGXUPFE_QBb6Gk835GLF-101">
          <mxGeometry x="60" width="60" height="40" as="geometry">
            <mxRectangle width="60" height="40" as="alternateBounds" />
          </mxGeometry>
        </mxCell>
        <mxCell id="sGXUPFE_QBb6Gk835GLF-104" value="" style="shape=tableRow;horizontal=0;startSize=0;swimlaneHead=0;swimlaneBody=0;strokeColor=inherit;top=0;left=0;bottom=0;right=0;collapsible=0;dropTarget=0;fillColor=none;points=[[0,0.5],[1,0.5]];portConstraint=eastwest;" vertex="1" parent="sGXUPFE_QBb6Gk835GLF-100">
          <mxGeometry y="40" width="120" height="35" as="geometry" />
        </mxCell>
        <mxCell id="sGXUPFE_QBb6Gk835GLF-105" value="" style="shape=partialRectangle;html=1;whiteSpace=wrap;connectable=0;strokeColor=inherit;overflow=hidden;fillColor=none;top=0;left=0;bottom=0;right=0;pointerEvents=1;" vertex="1" parent="sGXUPFE_QBb6Gk835GLF-104">
          <mxGeometry width="60" height="35" as="geometry">
            <mxRectangle width="60" height="35" as="alternateBounds" />
          </mxGeometry>
        </mxCell>
        <mxCell id="sGXUPFE_QBb6Gk835GLF-106" value="" style="shape=partialRectangle;html=1;whiteSpace=wrap;connectable=0;strokeColor=inherit;overflow=hidden;fillColor=none;top=0;left=0;bottom=0;right=0;pointerEvents=1;" vertex="1" parent="sGXUPFE_QBb6Gk835GLF-104">
          <mxGeometry x="60" width="60" height="35" as="geometry">
            <mxRectangle width="60" height="35" as="alternateBounds" />
          </mxGeometry>
        </mxCell>
        <mxCell id="sGXUPFE_QBb6Gk835GLF-107" value="" style="shape=tableRow;horizontal=0;startSize=0;swimlaneHead=0;swimlaneBody=0;strokeColor=inherit;top=0;left=0;bottom=0;right=0;collapsible=0;dropTarget=0;fillColor=none;points=[[0,0.5],[1,0.5]];portConstraint=eastwest;" vertex="1" parent="sGXUPFE_QBb6Gk835GLF-100">
          <mxGeometry y="75" width="120" height="40" as="geometry" />
        </mxCell>
        <mxCell id="sGXUPFE_QBb6Gk835GLF-108" value="" style="shape=partialRectangle;html=1;whiteSpace=wrap;connectable=0;strokeColor=inherit;overflow=hidden;fillColor=none;top=0;left=0;bottom=0;right=0;pointerEvents=1;" vertex="1" parent="sGXUPFE_QBb6Gk835GLF-107">
          <mxGeometry width="60" height="40" as="geometry">
            <mxRectangle width="60" height="40" as="alternateBounds" />
          </mxGeometry>
        </mxCell>
        <mxCell id="sGXUPFE_QBb6Gk835GLF-109" value="" style="shape=partialRectangle;html=1;whiteSpace=wrap;connectable=0;strokeColor=inherit;overflow=hidden;fillColor=none;top=0;left=0;bottom=0;right=0;pointerEvents=1;" vertex="1" parent="sGXUPFE_QBb6Gk835GLF-107">
          <mxGeometry x="60" width="60" height="40" as="geometry">
            <mxRectangle width="60" height="40" as="alternateBounds" />
          </mxGeometry>
        </mxCell>
        <mxCell id="sGXUPFE_QBb6Gk835GLF-110" value="" style="shape=tableRow;horizontal=0;startSize=0;swimlaneHead=0;swimlaneBody=0;strokeColor=inherit;top=0;left=0;bottom=0;right=0;collapsible=0;dropTarget=0;fillColor=none;points=[[0,0.5],[1,0.5]];portConstraint=eastwest;" vertex="1" parent="sGXUPFE_QBb6Gk835GLF-100">
          <mxGeometry y="115" width="120" height="40" as="geometry" />
        </mxCell>
        <mxCell id="sGXUPFE_QBb6Gk835GLF-111" value="" style="shape=partialRectangle;html=1;whiteSpace=wrap;connectable=0;strokeColor=inherit;overflow=hidden;fillColor=none;top=0;left=0;bottom=0;right=0;pointerEvents=1;" vertex="1" parent="sGXUPFE_QBb6Gk835GLF-110">
          <mxGeometry width="60" height="40" as="geometry">
            <mxRectangle width="60" height="40" as="alternateBounds" />
          </mxGeometry>
        </mxCell>
        <mxCell id="sGXUPFE_QBb6Gk835GLF-112" value="" style="shape=partialRectangle;html=1;whiteSpace=wrap;connectable=0;strokeColor=inherit;overflow=hidden;fillColor=none;top=0;left=0;bottom=0;right=0;pointerEvents=1;" vertex="1" parent="sGXUPFE_QBb6Gk835GLF-110">
          <mxGeometry x="60" width="60" height="40" as="geometry">
            <mxRectangle width="60" height="40" as="alternateBounds" />
          </mxGeometry>
        </mxCell>
        <mxCell id="sGXUPFE_QBb6Gk835GLF-114" value="" style="verticalLabelPosition=bottom;verticalAlign=top;strokeWidth=1;shape=mxgraph.mockup.graphics.iconGrid;strokeColor=#CCCCCC;gridSize=1,1;" vertex="1" parent="1">
          <mxGeometry x="430" y="690" width="310" height="170" as="geometry" />
        </mxCell>
        <mxCell id="sGXUPFE_QBb6Gk835GLF-115" value="" style="verticalLabelPosition=bottom;verticalAlign=top;strokeWidth=1;shape=mxgraph.mockup.graphics.iconGrid;strokeColor=#CCCCCC;gridSize=1,1;" vertex="1" parent="1">
          <mxGeometry x="50" y="690" width="310" height="170" as="geometry" />
        </mxCell>
        <mxCell id="sGXUPFE_QBb6Gk835GLF-116" value="" style="verticalLabelPosition=bottom;verticalAlign=top;strokeWidth=1;shape=mxgraph.mockup.graphics.iconGrid;strokeColor=#CCCCCC;gridSize=1,1;" vertex="1" parent="1">
          <mxGeometry x="50" y="890" width="310" height="170" as="geometry" />
        </mxCell>
        <mxCell id="sGXUPFE_QBb6Gk835GLF-117" value="" style="verticalLabelPosition=bottom;verticalAlign=top;strokeWidth=1;shape=mxgraph.mockup.graphics.iconGrid;strokeColor=#CCCCCC;gridSize=1,1;" vertex="1" parent="1">
          <mxGeometry x="430" y="880" width="310" height="170" as="geometry" />
        </mxCell>
      </root>
    </mxGraphModel>
  </diagram>
</mxfile>
